# This file uses centimeters as units for non-parametric coordinates.

mtllib book-two-pages.mtl
g default
v 1.898848 2.391943 -0.897368
v 1.903731 2.364501 -0.901468
v 2.399041 2.364501 -1.317082
v 1.899962 2.408130 -0.898304
v 1.899962 2.424311 -0.898304
v 1.903731 2.450652 -0.901468
v 2.394356 2.391943 -1.313148
v 2.393669 2.408130 -1.312569
v 2.394356 2.424311 -1.313148
v 2.399041 2.450652 -1.317082
v 1.350227 2.450652 -1.560759
v 1.845544 2.450652 -1.976380
v 1.840853 2.424311 -1.972446
v 1.840165 2.408130 -1.971867
v 1.840853 2.391943 -1.972446
v 1.845544 2.364501 -1.976380
v 1.350227 2.364501 -1.560759
v 1.346459 2.391943 -1.557602
v 1.345345 2.408130 -1.556666
v 1.346459 2.424311 -1.557602
vt -0.013100 0.350700
vt -0.003300 0.097700
vt 0.999500 0.097700
vt -0.010900 0.500000
vt -0.010900 0.649300
vt -0.003300 0.892200
vt 0.990000 0.350700
vt 0.988600 0.500000
vt 0.990000 0.649300
vt 0.999500 0.892200
vt 1.003600 0.892200
vt 0.000800 0.892200
vt 0.010300 0.649300
vt 0.011700 0.500000
vt 0.010300 0.350700
vt 0.000800 0.097700
vt 1.003600 0.097700
vt 1.011200 0.350700
vt 1.013500 0.500000
vt 1.011200 0.649300
vt -0.003300 -10.580500
vt 0.999500 -10.580500
vt 0.999200 11.538100
vt -0.003600 11.538100
vt -10.580500 0.500000
vt 11.538100 0.500000
vt 11.538100 0.649300
vt -10.580500 0.649300
vt 0.000500 -10.580500
vt 1.003300 -10.580500
vt 1.003600 11.538100
vt 0.000800 11.538100
vt 11.580500 0.500000
vt -10.538100 0.500000
vt -10.538100 0.350700
vt 11.580500 0.350700
vt -0.011200 11.538100
vt -0.010900 -10.580500
vt 11.580500 0.649300
vt -10.538100 0.649300
vt 1.013100 -10.580500
vt 1.011200 11.538100
vt 0.999500 -10.580500
vt 0.999200 11.538100
vt 0.989700 11.538100
vt 0.990000 -10.580500
vt -10.580500 0.350700
vt 11.538100 0.350700
vt 0.000800 11.538100
vt 0.000500 -10.580500
vt 0.010000 -10.580500
vt 0.010300 11.538100
vn 0.642790 0.000058 0.766043
vn 0.642789 -0.000020 0.766043
vn 0.642789 -0.000040 0.766044
vn 0.642788 -0.000075 0.766044
vn 0.642817 0.000000 0.766020
vn 0.642817 0.000000 0.766020
vn 0.642817 0.000000 0.766020
vn 0.642817 0.000000 0.766020
vn 0.642817 0.000000 0.766020
vn 0.642817 0.000000 0.766020
vn 0.642817 0.000000 0.766020
vn 0.642817 0.000000 0.766020
vn 0.642817 0.000000 0.766020
vn 0.642817 0.000000 0.766020
vn 0.642817 0.000000 0.766020
vn 0.642817 0.000000 0.766020
vn -0.642817 0.000000 -0.766020
vn -0.642817 0.000000 -0.766020
vn -0.642817 0.000000 -0.766020
vn -0.642817 0.000000 -0.766020
vn -0.642817 0.000000 -0.766020
vn -0.642817 0.000000 -0.766020
vn -0.642817 0.000000 -0.766020
vn -0.642817 0.000000 -0.766020
vn -0.642817 0.000000 -0.766020
vn -0.642817 0.000000 -0.766020
vn -0.642817 0.000000 -0.766020
vn -0.642817 0.000000 -0.766020
vn -0.642817 0.000000 -0.766020
vn -0.642817 0.000000 -0.766020
vn -0.642817 0.000000 -0.766020
vn -0.642817 0.000000 -0.766020
vn -0.000000 1.000000 -0.000000
vn -0.000000 1.000000 -0.000000
vn -0.000000 1.000000 -0.000000
vn -0.000000 1.000000 -0.000000
vn 0.765880 0.000000 -0.642983
vn 0.765880 0.000000 -0.642983
vn 0.747630 -0.217109 -0.627625
vn 0.747630 -0.217109 -0.627625
vn 0.000000 -1.000000 0.000000
vn 0.000000 -1.000000 0.000000
vn 0.000000 -1.000000 0.000000
vn 0.000000 -1.000000 0.000000
vn -0.764003 0.069100 0.641502
vn -0.765378 -0.000500 0.643581
vn -0.762249 -0.104207 0.638841
vn -0.749621 -0.205006 0.629318
vn -0.734900 0.281700 0.616901
vn -0.734900 0.281700 0.616901
vn -0.757512 0.142802 0.637011
vn -0.748577 0.211293 0.628480
vn -0.757512 0.142802 0.637011
vn -0.748577 0.211293 0.628480
vn -0.764003 0.069100 0.641502
vn -0.765378 -0.000500 0.643581
vn -0.737939 -0.272214 0.617532
vn -0.719424 -0.342912 0.604020
vn -0.749621 -0.205006 0.629318
vn -0.762249 -0.104207 0.638841
vn 0.722749 0.330877 -0.606757
vn 0.722749 0.330877 -0.606757
vn 0.748716 0.210704 -0.628513
vn 0.748716 0.210704 -0.628513
vn 0.748716 0.210704 -0.628513
vn 0.748716 0.210704 -0.628513
vn 0.765880 0.000000 -0.642983
vn 0.765880 0.000000 -0.642983
vn 0.719375 -0.343088 -0.603979
vn 0.719375 -0.343088 -0.603979
vn 0.747630 -0.217109 -0.627625
vn 0.747630 -0.217109 -0.627625
s 1
g books_and_mugs:Box003
usemtl aiStandardSurface11SG
f 4/4/1 1/1/2 3/3/3
f 1/1/2 2/2/4 3/3/3
s 2
f 6/6/5 5/5/6 3/3/7
f 5/5/6 4/4/8 3/3/7
s 3
f 3/3/9 7/7/10 6/6/11
f 6/6/11 7/7/10 8/8/12
s 4
f 10/10/13 6/6/14 9/9/15
f 6/6/14 8/8/16 9/9/15
s 5
f 12/12/17 13/13/18 11/11/19
f 11/11/19 13/13/18 14/14/20
s 6
f 16/16/21 11/11/22 15/15/23
f 11/11/22 14/14/24 15/15/23
s 7
f 19/19/25 16/16/26 18/18/27
f 16/16/26 17/17/28 18/18/27
s 8
f 19/19/29 20/20/30 16/16/31
f 16/16/31 20/20/30 11/11/32
s 9
f 6/21/33 10/22/34 11/24/35
f 11/24/35 10/22/34 12/23/36
s 10
f 8/25/37 14/26/38 9/28/39
f 9/28/39 14/26/38 13/27/40
s 11
f 3/29/41 2/30/42 16/32/43
f 16/32/43 2/30/42 17/31/44
s 12
f 4/33/45 19/34/46 1/36/47
f 1/36/47 19/34/46 18/35/48
s 13
f 6/21/49 11/24/50 5/38/51
f 5/38/51 11/24/50 20/37/52
s 14
f 5/39/53 20/40/54 4/33/55
f 4/33/55 20/40/54 19/34/56
s 15
f 17/31/57 2/30/58 18/42/59
f 18/42/59 2/30/58 1/41/60
s 16
f 3/43/61 16/44/62 7/46/63
f 7/46/63 16/44/62 15/45/64
s 17
f 7/47/65 15/48/66 8/25/67
f 8/25/67 15/48/66 14/26/68
s 18
f 12/49/69 10/50/70 13/52/71
f 13/52/71 10/50/70 9/51/72
