# This file uses centimeters as units for non-parametric coordinates.

mtllib book-four-pages.mtl
g default
v 2.064987 2.526783 -0.953595
v 2.068533 2.517063 -0.957821
v 2.400034 2.517063 -1.352882
v 2.065872 2.536503 -0.954645
v 2.065872 2.546223 -0.954645
v 2.068533 2.555943 -0.957821
v 2.398545 2.526783 -1.351106
v 2.397997 2.536503 -1.350456
v 2.398545 2.546223 -1.351106
v 2.400034 2.555943 -1.352882
v 1.463634 2.555943 -1.465392
v 1.795129 2.555943 -1.860459
v 1.793640 2.546223 -1.858683
v 1.793092 2.536503 -1.858027
v 1.793640 2.526783 -1.858683
v 1.795129 2.517063 -1.860459
v 1.463634 2.517063 -1.465392
v 1.460967 2.526783 -1.462215
v 1.460089 2.536503 -1.461165
v 1.460967 2.546223 -1.462215
vt -0.012300 0.350700
vt -0.003300 0.201500
vt 0.843600 0.201500
vt -0.010100 0.500000
vt -0.010100 0.649300
vt -0.003300 0.798500
vt 0.839800 0.350700
vt 0.838400 0.500000
vt 0.839800 0.649300
vt 0.843600 0.798500
vt 1.003300 0.798500
vt 0.156400 0.798500
vt 0.160200 0.649300
vt 0.161600 0.500000
vt 0.160200 0.350700
vt 0.156400 0.201500
vt 1.003300 0.201500
vt 1.010100 0.350700
vt 1.012300 0.500000
vt 1.010100 0.649300
vt -0.003300 -11.316300
vt 0.843600 -11.316300
vt 0.843600 8.973100
vt -0.003300 8.973100
vt -11.316300 0.500000
vt 8.973100 0.500000
vt 8.973100 0.649300
vt -11.316300 0.649300
vt 0.156400 -11.316300
vt 1.003300 -11.316300
vt 1.003300 8.973100
vt 0.156400 8.973100
vt 12.316300 0.500000
vt -7.973100 0.500000
vt -7.973100 0.350700
vt 12.316300 0.350700
vt -0.010100 8.973100
vt -0.010100 -11.316300
vt 12.316300 0.649300
vt -7.973100 0.649300
vt 1.012300 -11.316300
vt 1.010100 8.973100
vt 0.843600 -11.316300
vt 0.843600 8.973100
vt 0.839800 8.973100
vt 0.839800 -11.316300
vt -11.316300 0.350700
vt 8.973100 0.350700
vt 0.156400 8.973100
vt 0.156400 -11.316300
vt 0.160200 -11.316300
vt 0.160200 8.973100
vn 0.766034 -0.000298 0.642800
vn 0.766036 -0.000208 0.642798
vn 0.766037 -0.000190 0.642797
vn 0.766039 -0.000080 0.642794
vn 0.766020 0.000000 0.642817
vn 0.766020 0.000000 0.642817
vn 0.766020 0.000000 0.642817
vn 0.766020 0.000000 0.642817
vn 0.766020 0.000000 0.642817
vn 0.766020 0.000000 0.642817
vn 0.766020 0.000000 0.642817
vn 0.766020 0.000000 0.642817
vn 0.766020 0.000000 0.642817
vn 0.766020 0.000000 0.642817
vn 0.766020 0.000000 0.642817
vn 0.766020 0.000000 0.642817
vn -0.766020 0.000000 -0.642817
vn -0.766020 0.000000 -0.642817
vn -0.766020 0.000000 -0.642817
vn -0.766020 0.000000 -0.642817
vn -0.766020 0.000000 -0.642817
vn -0.766020 0.000000 -0.642817
vn -0.766020 0.000000 -0.642817
vn -0.766020 0.000000 -0.642817
vn -0.766020 0.000000 -0.642817
vn -0.766020 0.000000 -0.642817
vn -0.766020 0.000000 -0.642817
vn -0.766020 0.000000 -0.642817
vn -0.766020 0.000000 -0.642817
vn -0.766020 0.000000 -0.642817
vn -0.766020 0.000000 -0.642817
vn -0.766020 0.000000 -0.642817
vn -0.000000 1.000000 -0.000000
vn -0.000000 1.000000 -0.000000
vn -0.000000 1.000000 -0.000000
vn -0.000000 1.000000 -0.000000
vn 0.642817 0.000000 -0.766020
vn 0.642817 0.000000 -0.766020
vn 0.634491 -0.159998 -0.756189
vn 0.634491 -0.159998 -0.756189
vn 0.000000 -1.000000 0.000000
vn 0.000000 -1.000000 0.000000
vn 0.000000 -1.000000 0.000000
vn 0.000000 -1.000000 0.000000
vn -0.641232 0.069003 0.764238
vn -0.642110 -0.000500 0.766612
vn -0.632235 -0.186310 0.752042
vn -0.619386 -0.267294 0.738183
vn -0.591283 0.392188 0.704679
vn -0.591283 0.392188 0.704679
vn -0.629024 0.200708 0.751029
vn -0.619188 0.268295 0.737986
vn -0.629024 0.200708 0.751029
vn -0.619188 0.268295 0.737986
vn -0.641232 0.069003 0.764238
vn -0.642110 -0.000500 0.766612
vn -0.592242 -0.393128 0.703349
vn -0.559016 -0.493614 0.666219
vn -0.619386 -0.267294 0.738183
vn -0.632235 -0.186310 0.752042
vn 0.625269 0.231888 -0.745162
vn 0.625269 0.231888 -0.745162
vn 0.634491 0.159998 -0.756189
vn 0.634491 0.159998 -0.756189
vn 0.634491 0.159998 -0.756189
vn 0.634491 0.159998 -0.756189
vn 0.642817 0.000000 -0.766020
vn 0.642817 0.000000 -0.766020
vn 0.625269 -0.231888 -0.745162
vn 0.625269 -0.231888 -0.745162
vn 0.634491 -0.159998 -0.756189
vn 0.634491 -0.159998 -0.756189
s 1
g books_and_mugs:Box005
usemtl aiStandardSurface11SG
f 4/4/1 1/1/2 3/3/3
f 1/1/2 2/2/4 3/3/3
s 2
f 4/4/5 3/3/6 5/5/7
f 5/5/7 3/3/6 6/6/8
s 3
f 3/3/9 7/7/10 6/6/11
f 6/6/11 7/7/10 8/8/12
s 4
f 10/10/13 6/6/14 9/9/15
f 6/6/14 8/8/16 9/9/15
s 5
f 12/12/17 13/13/18 11/11/19
f 11/11/19 13/13/18 14/14/20
s 6
f 16/16/21 11/11/22 15/15/23
f 11/11/22 14/14/24 15/15/23
s 7
f 19/19/25 16/16/26 18/18/27
f 16/16/26 17/17/28 18/18/27
s 8
f 19/19/29 20/20/30 16/16/31
f 16/16/31 20/20/30 11/11/32
s 9
f 6/21/33 10/22/34 11/24/35
f 11/24/35 10/22/34 12/23/36
s 10
f 8/25/37 14/26/38 9/28/39
f 9/28/39 14/26/38 13/27/40
s 11
f 3/29/41 2/30/42 16/32/43
f 16/32/43 2/30/42 17/31/44
s 12
f 4/33/45 19/34/46 1/36/47
f 1/36/47 19/34/46 18/35/48
s 13
f 6/21/49 11/24/50 5/38/51
f 5/38/51 11/24/50 20/37/52
s 14
f 5/39/53 20/40/54 4/33/55
f 4/33/55 20/40/54 19/34/56
s 15
f 17/31/57 2/30/58 18/42/59
f 18/42/59 2/30/58 1/41/60
s 16
f 3/43/61 16/44/62 7/46/63
f 7/46/63 16/44/62 15/45/64
s 17
f 7/47/65 15/48/66 8/25/67
f 8/25/67 15/48/66 14/26/68
s 18
f 12/49/69 10/50/70 13/52/71
f 13/52/71 10/50/70 9/51/72
